<svg width="200" height="200"  version="1.1" xmlns="http://www.w3.org/2000/svg" xmlns:xlink="http://www.w3.org/1999/xlink" x="0px" y="0px" viewBox="3.8969192504882812 7 984.978271484375 993.0033569335938" enable-background="new 0 0 1000 1000" xml:space="preserve">
<path fill="#1677FF" d="M508.99,7c42.77,0,77.45,100.99,77.45,225.51c0,64.92-9.43,123.45-24.51,164.59
	c5.23-31.95,8.19-25.78,8.19-107.52c0-81.74-30.4-187.5-67.94-187.5c-37.51,0-67.92,124.85-67.92,187.5c0,62.67,0,1.59,0,2.36
	c-1.78-18.92-2.72-38.83-2.72-59.44C431.55,107.99,466.2,7,508.99,7L508.99,7z M117.17,188.45c27.49-32.77,127.15,5.57,222.56,85.66
	c49.72,41.7,88.49,86.53,110.32,124.54c-21.11-24.55-14.49-22.87-77.11-75.38c-62.6-52.54-163.16-97.22-187.27-68.49
	c-24.12,28.75,51.95,132.26,99.97,172.55c48,40.29,1.2,1.01,1.82,1.51c-15.65-10.82-31.52-22.89-47.3-36.12
	C144.76,312.68,89.67,221.2,117.17,188.45L117.17,188.45z M4.31,605.2c-7.42-42.1,86.01-93.79,208.66-115.44
	c63.94-11.25,123.18-12.13,166.34-4.41c-32.39,0.4-26.83-3.62-107.33,10.55c-80.47,14.22-179.36,62.54-172.84,99.48
	c6.52,36.94,134.72,45.21,196.45,34.33c61.73-10.87,1.55-0.26,2.35-0.43c-18.35,5.03-37.82,9.44-58.08,13
	C117.22,663.92,11.74,647.33,4.31,605.2L4.31,605.2z M251.01,959.57c-37.02-21.37-16.56-126.18,45.71-234.04
	c32.48-56.23,69.92-102.21,103.54-130.28c-20.52,25.07-20.01,18.22-60.88,89.03c-40.87,70.78-67.41,177.57-34.9,196.3
	c32.45,18.78,121.22-74.11,152.54-128.38c31.34-54.27,0.8-1.35,1.2-2.07c-7.95,17.28-17.07,35.02-27.35,52.84
	C368.6,910.83,288.06,980.96,251.01,959.57L251.01,959.57z M681.08,998.33c-40.19,14.64-107.32-68.41-149.91-185.44
	c-22.2-61-33.37-119.21-33.26-163.03c6.03,31.8,1.13,27.04,29.07,103.84c27.94,76.81,92.72,165.8,127.99,152.97
	c35.22-12.83,21.1-140.54-0.3-199.45c-21.47-58.88-0.57-1.46-0.83-2.2c8.12,17.16,15.84,35.61,22.9,54.91
	C719.3,876.95,721.25,983.71,681.08,998.33L681.08,998.33z M987.21,693.83c-14.64,40.19-121.41,38.23-238.44-4.38
	c-61-22.2-112.78-51.05-146.28-79.32c28.24,15.85,21.43,16.53,98.27,44.49c76.76,27.97,186.57,35.55,199.38,0.29
	c12.83-35.24-94.05-106.52-152.94-127.94c-58.86-21.46-1.51-0.55-2.26-0.81c18.44,4.82,37.49,10.72,56.84,17.76
	C918.78,586.52,1001.81,653.67,987.21,693.83L987.21,693.83z M950.72,263.61c21.35,37.02-48.77,117.58-156.63,179.82
	c-56.19,32.47-111.58,53.56-154.78,61.07c30.3-11.45,26.47-5.76,97.23-46.64c70.8-40.87,147.16-120.11,128.38-152.57
	c-18.72-32.5-142.02,3.56-196.31,34.88c-54.27,31.35-1.38,0.81-2.06,1.22c15.52-11.02,32.28-21.8,50.12-32.08
	C824.55,247.03,929.34,226.55,950.72,263.61L950.72,263.61z"></path>
</svg>
